<?xml version="1.0" encoding="UTF-8"?>
<svg width="20px" height="20px" viewBox="0 0 20 20" version="1.1" xmlns="http://www.w3.org/2000/svg" xmlns:xlink="http://www.w3.org/1999/xlink">
    <g stroke="none" stroke-width="1" fill="none" fill-rule="evenodd">
        <path d="M11.2489375,12.0823958 C11.2489375,10.4159791 12.3133843,9.58252083 13.5633218,9.58252083 C14.8132593,9.58252083 15.8322083,10.4159791 15.8322083,12.498875 L15.8322083,19.5815208 L19.998,19.5815208 L19.998,12.0823958 C19.998,8.33258333 17.9151042,6.24918751 14.99875,6.24918751 C13.3323333,6.24918751 12.0823958,7.19814006 11.2489375,8.44807755 L11.1099444,6.66616666 L7.01314931,6.66616666 C7.01314931,7.10564468 7.08264583,9.58252083 7.08264583,9.58252083 L7.08264583,19.5815208 L11.2489375,19.5815208 L11.2489375,12.0823958 Z M0.416479174,19.5815208 L4.58277084,19.5815208 L4.58277084,6.66616666 L0.416479174,6.66616666 L0.416479174,19.5815208 Z M2.45337732,4.58327081 C0.971951398,4.58327081 0,3.56482174 0,2.29138542 C0,0.995450223 0.994950248,0 2.52287384,0 C4.02729861,0 4.97625116,0.995450223 4.99925001,2.29138542 C4.99925001,3.56482174 4.02729861,4.58327081 2.47637617,4.58327081 L2.45337732,4.58327081 Z" fill="currentColor"></path>
    </g>
</svg>